name pl08_filtered_grf.mot
datacolumns 37
datarows 6
range 1.076500 1.079000
endheader
time	1_ground_force_vx	1_ground_force_vy	1_ground_force_vz	1_ground_force_px	1_ground_force_py	1_ground_force_pz	1_ground_torque_x	1_ground_torque_y	1_ground_torque_z	2_ground_force_vx	2_ground_force_vy	2_ground_force_vz	2_ground_force_px	2_ground_force_py	2_ground_force_pz	2_ground_torque_x	2_ground_torque_y	2_ground_torque_z	3_ground_force_vx	3_ground_force_vy	3_ground_force_vz	3_ground_force_px	3_ground_force_py	3_ground_force_pz	3_ground_torque_x	3_ground_torque_y	3_ground_torque_z	4_ground_force_vx	4_ground_force_vy	4_ground_force_vz	4_ground_force_px	4_ground_force_py	4_ground_force_pz	4_ground_torque_x	4_ground_torque_y	4_ground_torque_z
            1.076500	          -18.711381	          378.452016	            3.244387	            0.149890	            0.000000	            0.218354	           -0.407388	            8.239731	            0.070637	           22.442640	          318.839739	            4.408301	           -0.149488	            0.000000	            0.246894	           -0.151198	           -2.148046	           -0.029699	           22.683779	            1.678119	            0.466690	            0.375726	            1.311123	            1.913775	           -0.097351	           -0.007202	           -0.002003	          -18.841956	           -0.404358	            1.781928	           -0.264985	            1.310034	            1.924742	            0.001136	            0.000024	           -0.000107
            1.077000	          -18.726240	          377.312084	            3.108807	            0.149951	            0.000000	            0.218381	           -0.407713	            8.214937	            0.067686	           22.424056	          317.997665	            4.034737	           -0.149573	            0.000000	            0.247029	           -0.150763	           -2.137982	           -0.027127	           22.682332	            1.676329	            0.476888	            0.375727	            1.311128	            1.913778	           -0.097395	           -0.007198	           -0.002048	          -18.829046	           -0.392281	            1.769536	           -0.264984	            1.310033	            1.924746	            0.001294	            0.000027	           -0.000122
            1.077500	          -18.742229	          376.166826	            2.976087	            0.150010	            0.000000	            0.218405	           -0.408071	            8.190202	            0.064798	           22.405872	          317.161999	            3.660553	           -0.149660	            0.000000	            0.247165	           -0.150345	           -2.128179	           -0.024563	           22.680672	            1.675110	            0.486683	            0.375729	            1.311133	            1.913781	           -0.097420	           -0.007195	           -0.002090	          -18.816096	           -0.380317	            1.757885	           -0.264983	            1.310033	            1.924749	            0.001479	            0.000030	           -0.000138
            1.078000	          -18.759347	          375.016813	            2.846018	            0.150069	            0.000000	            0.218426	           -0.408462	            8.165535	            0.061969	           22.386912	          316.332100	            3.286314	           -0.149746	            0.000000	            0.247302	           -0.149946	           -2.118770	           -0.022012	           22.678750	            1.674523	            0.496046	            0.375731	            1.311137	            1.913784	           -0.097425	           -0.007194	           -0.002131	          -18.803164	           -0.368581	            1.746705	           -0.264982	            1.310032	            1.924753	            0.001689	            0.000033	           -0.000157
            1.078500	          -18.777576	          373.862672	            2.718409	            0.150126	            0.000000	            0.218443	           -0.408886	            8.140938	            0.059194	           22.366038	          315.507344	            2.912602	           -0.149833	            0.000000	            0.247440	           -0.149568	           -2.109881	           -0.019477	           22.676516	            1.674623	            0.504866	            0.375733	            1.311141	            1.913786	           -0.097408	           -0.007193	           -0.002169	          -18.790247	           -0.357164	            1.736371	           -0.264981	            1.310032	            1.924757	            0.001922	            0.000037	           -0.000178
            1.079000	          -18.796882	          372.705085	            2.593081	            0.150184	            0.000000	            0.218458	           -0.409340	            8.116411	            0.056470	           22.342168	          314.687125	            2.540011	           -0.149918	            0.000000	            0.247578	           -0.149211	           -2.101626	           -0.016963	           22.673923	            1.675454	            0.513087	            0.375734	            1.311145	            1.913789	           -0.097371	           -0.007195	           -0.002203	          -18.777377	           -0.346164	            1.726928	           -0.264981	            1.310032	            1.924760	            0.002178	            0.000040	           -0.000200
